<?xml version="1.0" encoding="UTF-8" standalone="no"?>
<svg
   xmlns:dc="http://purl.org/dc/elements/1.1/"
   xmlns:cc="http://creativecommons.org/ns#"
   xmlns:rdf="http://www.w3.org/1999/02/22-rdf-syntax-ns#"
   xmlns:svg="http://www.w3.org/2000/svg"
   xmlns="http://www.w3.org/2000/svg"
   xmlns:sodipodi="http://sodipodi.sourceforge.net/DTD/sodipodi-0.dtd"
   xmlns:inkscape="http://www.inkscape.org/namespaces/inkscape"
   width="210mm"
   height="297mm"
   viewBox="0 0 210 297"
   version="1.1"
   id="svg8"
   inkscape:version="1.0.2-2 (e86c870879, 2021-01-15)"
   sodipodi:docname="evente-logo.svg">
  <defs
     id="defs2" />
  <sodipodi:namedview
     id="base"
     pagecolor="#ffffff"
     bordercolor="#666666"
     borderopacity="1.0"
     inkscape:pageopacity="0.0"
     inkscape:pageshadow="2"
     inkscape:zoom="0.75982143"
     inkscape:cx="116.85552"
     inkscape:cy="-1.8038862"
     inkscape:document-units="mm"
     inkscape:current-layer="text835"
     inkscape:document-rotation="0"
     showgrid="false"
     inkscape:snap-bbox="true"
     inkscape:bbox-paths="true"
     inkscape:bbox-nodes="true"
     inkscape:snap-bbox-edge-midpoints="true"
     inkscape:snap-bbox-midpoints="true"
     inkscape:object-paths="true"
     inkscape:snap-intersection-paths="true"
     inkscape:snap-smooth-nodes="true"
     inkscape:snap-midpoints="true"
     inkscape:snap-object-midpoints="true"
     inkscape:snap-center="true"
     inkscape:snap-text-baseline="true"
     showguides="true"
     inkscape:guide-bbox="true"
     inkscape:snap-global="true"
     inkscape:window-width="1920"
     inkscape:window-height="1051"
     inkscape:window-x="-9"
     inkscape:window-y="-9"
     inkscape:window-maximized="1">
    <sodipodi:guide
       position="-36.747567,364.17412"
       orientation="1,0"
       id="guide840" />
    <sodipodi:guide
       position="-36.747566,364.17413"
       orientation="0,-1"
       id="guide842" />
    <sodipodi:guide
       position="-36.747567,419.99566"
       orientation="0,-1"
       id="guide844" />
    <sodipodi:guide
       position="-88.02572,364.17414"
       orientation="1,0"
       id="guide846" />
    <sodipodi:guide
       position="-36.74747,395.05648"
       orientation="0,-1"
       id="guide858" />
  </sodipodi:namedview>
  <metadata
     id="metadata5">
    <rdf:RDF>
      <cc:Work
         rdf:about="">
        <dc:format>image/svg+xml</dc:format>
        <dc:type
           rdf:resource="http://purl.org/dc/dcmitype/StillImage" />
        <dc:title></dc:title>
      </cc:Work>
    </rdf:RDF>
  </metadata>
  <g
     inkscape:label="Layer 1"
     inkscape:groupmode="layer"
     id="layer1">
    <g
       aria-label="e"
       id="text835"
       style="font-style:normal;font-variant:normal;font-weight:normal;font-stretch:normal;font-size:105.833px;line-height:1.25;font-family:'Berlin Sans FB Demi';-inkscape-font-specification:'Berlin Sans FB Demi';fill:#000000;fill-opacity:1;stroke:none;stroke-width:0.264583">
      <path
         id="path837"
         style="font-style:normal;font-variant:normal;font-weight:normal;font-stretch:normal;font-size:105.833px;font-family:'Berlin Sans FB Demi';-inkscape-font-specification:'Berlin Sans FB Demi';fill:#c2ac3d;fill-opacity:1;stroke-width:0.554249"
         d="m 36.453571,40.633359 a 52.646413,51.278152 41.127482 0 0 -0.0387,0.0451 52.646413,51.278152 41.127482 0 0 -0.162371,0.18752 52.646413,51.278152 41.127482 0 0 -0.192424,0.22508 52.646413,51.278152 41.127482 0 0 -0.0078,0.009 52.646413,51.278152 41.127482 0 0 -0.0082,0.009 52.646413,51.278152 41.127482 0 0 -0.190187,0.22566 52.646413,51.278152 41.127482 0 0 -0.187029,0.22362 52.646413,51.278152 41.127482 0 0 -0.04093,0.05 52.646413,51.278152 41.127482 0 0 -0.119491,0.14469 52.646413,51.278152 41.127482 0 0 -0.164689,0.20196 52.646413,51.278152 41.127482 0 0 -0.156773,0.19447 52.646413,51.278152 41.127482 0 0 -0.111133,0.13827 52.646413,51.278152 41.127482 0 0 -0.190662,0.24035 52.646413,51.278152 41.127482 0 0 -0.180021,0.22973 52.646413,51.278152 41.127482 0 0 -0.02996,0.039 52.646413,51.278152 41.127482 0 0 -0.127976,0.16542 52.646413,51.278152 41.127482 0 0 -0.09661,0.12556 52.646413,51.278152 41.127482 0 0 -0.129818,0.17067 52.646413,51.278152 41.127482 0 0 -0.114669,0.15097 l 3.89e-4,3.4e-4 a 52.646413,51.278152 41.127482 0 0 -0.0047,0.006 52.646413,51.278152 41.127482 0 0 -0.0054,0.007 52.646413,51.278152 41.127482 0 0 -0.005,0.007 52.646413,51.278152 41.127482 0 0 -0.01442,0.0197 52.646413,51.278152 41.127482 0 0 -0.140397,0.18749 52.646413,51.278152 41.127482 0 0 -0.07214,0.0975 52.646413,51.278152 41.127482 0 0 -0.01277,0.017 52.646413,51.278152 41.127482 0 0 -0.141172,0.19232 52.646413,51.278152 41.127482 0 0 -0.180928,0.24883 52.646413,51.278152 41.127482 0 0 -0.140923,0.19596 52.646413,51.278152 41.127482 0 0 -0.04854,0.0674 52.646413,51.278152 41.127482 0 0 -0.470861,0.6728 52.646413,51.278152 41.127482 0 0 -0.08733,0.12751 52.646413,51.278152 41.127482 0 0 -0.172853,0.25452 52.646413,51.278152 41.127482 0 0 -0.143723,0.21409 52.646413,51.278152 41.127482 0 0 -0.159499,0.2408 52.646413,51.278152 41.127482 0 0 -0.109888,0.16748 52.646413,51.278152 41.127482 0 0 -0.05873,0.09 52.646413,51.278152 41.127482 0 0 -0.03747,0.0578 52.646413,51.278152 41.127482 0 0 -0.129591,0.20105 52.646413,51.278152 41.127482 0 0 -0.115224,0.18067 52.646413,51.278152 41.127482 0 0 -0.08702,0.137367 52.646413,51.278152 41.127482 0 0 -0.131915,0.21 52.646413,51.278152 41.127482 0 0 -0.15715,0.25383 52.646413,51.278152 41.127482 0 0 -0.114439,0.186827 52.646413,51.278152 41.127482 0 0 -0.0613,0.10084 52.646413,51.278152 41.127482 0 0 -0.08197,0.1363 52.646413,51.278152 41.127482 0 0 -0.08134,0.13479 52.646413,51.278152 41.127482 0 0 -0.01611,0.0271 52.646413,51.278152 41.127482 0 0 -0.121616,0.20527 52.646413,51.278152 41.127482 0 0 -0.15597,0.26583 52.646413,51.278152 41.127482 0 0 -0.153734,0.266407 52.646413,51.278152 41.127482 0 0 -0.08808,0.15429 52.646413,51.278152 41.127482 0 0 -0.08904,0.156187 52.646413,51.278152 41.127482 0 0 -0.0095,0.0171 52.646413,51.278152 41.127482 0 0 -0.116992,0.20862 52.646413,51.278152 41.127482 0 0 -0.107093,0.19257 52.646413,51.278152 41.127482 0 0 -0.07371,0.133907 52.646413,51.278152 41.127482 0 0 -0.0016,0.003 52.646413,51.278152 41.127482 0 0 -0.114316,0.21027 52.646413,51.278152 41.127482 0 0 -0.11097,0.20565 52.646413,51.278152 41.127482 0 0 -0.04585,0.0855 52.646413,51.278152 41.127482 0 0 -0.09127,0.172077 52.646413,51.278152 41.127482 0 0 -0.05614,0.10672 52.646413,51.278152 41.127482 0 0 -0.07234,0.13784 52.646413,51.278152 41.127482 0 0 -0.0735,0.142317 52.646413,51.278152 41.127482 0 0 -0.0146,0.0277 52.646413,51.278152 41.127482 0 0 -0.109018,0.21284 52.646413,51.278152 41.127482 0 0 -0.139238,0.274947 52.646413,51.278152 41.127482 0 0 -0.104499,0.20925 52.646413,51.278152 41.127482 0 0 -0.04357,0.0868 52.646413,51.278152 41.127482 0 0 -0.08655,0.17689 52.646413,51.278152 41.127482 0 0 -0.0505,0.103397 52.646413,51.278152 41.127482 0 0 -0.01868,0.0379 52.646413,51.278152 41.127482 0 0 -0.103716,0.21542 52.646413,51.278152 41.127482 0 0 -0.13243,0.278147 52.646413,51.278152 41.127482 0 0 -0.130873,0.27951 52.646413,51.278152 41.127482 0 0 -0.105743,0.228737 52.646413,51.278152 41.127482 0 0 -0.03129,0.068 52.646413,51.278152 41.127482 0 0 -0.02071,0.0457 52.646413,51.278152 41.127482 0 0 -0.09875,0.21837 52.646413,51.278152 41.127482 0 0 -0.101418,0.227707 52.646413,51.278152 41.127482 0 0 -0.03943,0.0884 52.646413,51.278152 41.127482 0 0 -0.01271,0.0287 52.646413,51.278152 41.127482 0 0 -0.09579,0.21891 52.646413,51.278152 41.127482 0 0 -0.114602,0.265591 52.646413,51.278152 41.127482 0 0 -0.01077,0.0249 52.646413,51.278152 41.127482 0 0 -0.103589,0.24434 52.646413,51.278152 41.127482 0 0 -0.01993,0.0464 52.646413,51.278152 41.127482 0 0 -0.06896,0.16618 52.646413,51.278152 41.127482 0 0 -0.05674,0.13569 52.646413,51.278152 41.127482 0 0 -0.01353,0.0328 52.646413,51.278152 41.127482 0 0 -0.09049,0.22148 52.646413,51.278152 41.127482 0 0 -0.115407,0.28616 52.646413,51.278152 41.127482 0 0 -0.113173,0.28673 52.646413,51.278152 41.127482 0 0 -0.08233,0.21214 52.646413,51.278152 41.127482 0 0 -0.03743,0.0963 52.646413,51.278152 41.127482 0 0 -0.01717,0.044 52.646413,51.278152 41.127482 0 0 -0.08484,0.22366 52.646413,51.278152 41.127482 0 0 -0.108261,0.288966 52.646413,51.278152 41.127482 0 0 -0.106749,0.2896 52.646413,51.278152 41.127482 0 0 -0.09686,0.268054 52.646413,51.278152 41.127482 0 0 -0.0098,0.0285 52.646413,51.278152 41.127482 0 0 -0.201932,0.576952 52.646413,51.278152 41.127482 0 0 -0.0996,0.292413 52.646413,51.278152 41.127482 0 0 -0.0679,0.203465 52.646413,51.278152 41.127482 0 0 -0.04231,0.127021 52.646413,51.278152 41.127482 0 0 -0.04095,0.125464 52.646413,51.278152 41.127482 0 0 -0.05331,0.164755 52.646413,51.278152 41.127482 0 0 -0.01066,0.03185 52.646413,51.278152 41.127482 0 0 -0.07244,0.228312 52.646413,51.278152 41.127482 0 0 -0.07651,0.24397 52.646413,51.278152 41.127482 0 0 -0.02117,0.06589 52.646413,51.278152 41.127482 0 0 -0.168459,0.557473 52.646413,51.278152 41.127482 0 0 -0.01134,0.03813 52.646413,51.278152 41.127482 0 0 -0.014,0.04746 52.646413,51.278152 41.127482 0 0 -0.06719,0.230156 52.646413,51.278152 41.127482 0 0 -0.08501,0.296917 52.646413,51.278152 41.127482 0 0 -0.146611,0.528527 52.646413,51.278152 41.127482 0 0 -0.0185,0.06754 52.646413,51.278152 41.127482 0 0 -0.01782,0.06677 52.646413,51.278152 41.127482 0 0 -0.077,0.290881 52.646413,51.278152 41.127482 0 0 -0.0024,0.0082 52.646413,51.278152 41.127482 0 0 -0.06009,0.232238 52.646413,51.278152 41.127482 0 0 -0.07602,0.299971 52.646413,51.278152 41.127482 0 0 -0.07417,0.300214 52.646413,51.278152 41.127482 0 0 -0.06748,0.279983 52.646413,51.278152 41.127482 0 0 -0.0075,0.02981 52.646413,51.278152 41.127482 0 0 -0.01365,0.05806 52.646413,51.278152 41.127482 0 0 -0.05445,0.23442 52.646413,51.278152 41.127482 0 0 -0.06243,0.273415 52.646413,51.278152 41.127482 0 0 -0.01128,0.04984 52.646413,51.278152 41.127482 0 0 -0.02661,0.120831 52.646413,51.278152 41.127482 0 0 -0.05018,0.227172 52.646413,51.278152 41.127482 0 0 -0.05095,0.237479 52.646413,51.278152 41.127482 0 0 -0.05612,0.269326 52.646413,51.278152 41.127482 0 0 -0.0084,0.03866 52.646413,51.278152 41.127482 0 0 -0.119073,0.599909 52.646413,51.278152 41.127482 0 0 -0.05778,0.304232 52.646413,51.278152 41.127482 0 0 -0.05593,0.304473 52.646413,51.278152 41.127482 0 0 -0.05404,0.305442 52.646413,51.278152 41.127482 0 0 -0.04673,0.272719 52.646413,51.278152 41.127482 0 0 -0.0079,0.04522 52.646413,51.278152 41.127482 0 0 -0.04797,0.292215 52.646413,51.278152 41.127482 0 0 4.9e-5,7.28e-4 52.646413,51.278152 41.127482 0 0 -0.01111,0.06851 52.646413,51.278152 41.127482 0 0 -0.03738,0.23766 52.646413,51.278152 41.127482 0 0 -0.04665,0.306406 52.646413,51.278152 41.127482 0 0 -0.03679,0.251904 52.646413,51.278152 41.127482 0 0 -0.01501,0.102831 52.646413,51.278152 41.127482 0 0 -0.01062,0.0758 52.646413,51.278152 41.127482 0 0 -0.03122,0.225889 52.646413,51.278152 41.127482 0 0 -0.0037,0.02625 52.646413,51.278152 41.127482 0 0 -0.03145,0.238723 52.646413,51.278152 41.127482 0 0 -0.03164,0.246793 52.646413,51.278152 41.127482 0 0 -0.01177,0.09126 52.646413,51.278152 41.127482 0 0 -0.0202,0.166909 52.646413,51.278152 41.127482 0 0 -0.01644,0.135891 52.646413,51.278152 41.127482 0 0 -0.0051,0.04356 52.646413,51.278152 41.127482 0 0 -0.02703,0.239154 52.646413,51.278152 41.127482 0 0 -0.06553,0.617164 52.646413,51.278152 41.127482 0 0 -0.007,0.06933 52.646413,51.278152 41.127482 0 0 -0.02294,0.239976 52.646413,51.278152 41.127482 0 0 -0.02817,0.30882 52.646413,51.278152 41.127482 0 0 -0.04783,0.581172 52.646413,51.278152 41.127482 0 0 -0.0049,0.06772 52.646413,51.278152 41.127482 0 0 -0.0163,0.224513 52.646413,51.278152 41.127482 0 0 -0.0051,0.07103 52.646413,51.278152 41.127482 0 0 -0.01336,0.203072 52.646413,51.278152 41.127482 0 0 -0.0069,0.108511 52.646413,51.278152 41.127482 0 0 -0.03463,0.602983 52.646413,51.278152 41.127482 0 0 -0.0101,0.202485 52.646413,51.278152 41.127482 0 0 -0.007,0.150269 52.646413,51.278152 41.127482 0 0 -0.0011,0.02718 52.646413,51.278152 41.127482 0 0 -0.0097,0.241276 52.646413,51.278152 41.127482 0 0 -0.02056,0.621442 52.646413,51.278152 41.127482 0 0 -0.0072,0.282497 52.646413,51.278152 41.127482 0 0 -6.42e-4,0.03923 52.646413,51.278152 41.127482 0 0 -0.0015,0.05834 52.646413,51.278152 41.127482 0 0 -0.0038,0.241609 52.646413,51.278152 41.127482 0 0 -0.0034,0.289934 52.646413,51.278152 41.127482 0 0 -4.6e-4,0.02567 52.646413,51.278152 41.127482 0 0 -2.65e-4,0.883397 52.646413,51.278152 41.127482 0 0 6.67e-4,0.08016 52.646413,51.278152 41.127482 0 0 0.0022,0.183707 52.646413,51.278152 41.127482 0 0 0.0019,0.114871 52.646413,51.278152 41.127482 0 0 0.0038,0.229013 52.646413,51.278152 41.127482 0 0 0.0012,0.07243 52.646413,51.278152 41.127482 0 0 0.0013,0.05741 52.646413,51.278152 41.127482 0 0 0.0065,0.241648 52.646413,51.278152 41.127482 0 0 0.009,0.311067 52.646413,51.278152 41.127482 0 0 0.02455,0.622416 52.646413,51.278152 41.127482 0 0 0.01485,0.311401 52.646413,51.278152 41.127482 0 0 0.01699,0.310524 52.646413,51.278152 41.127482 0 0 10e-5,0.0015 52.646413,51.278152 41.127482 0 0 0.01666,0.273188 52.646413,51.278152 41.127482 0 0 0.0028,0.04633 52.646413,51.278152 41.127482 0 0 0.0037,0.06018 52.646413,51.278152 41.127482 0 0 0.01634,0.241347 52.646413,51.278152 41.127482 0 0 0.02214,0.310908 52.646413,51.278152 41.127482 0 0 0.02433,0.310758 52.646413,51.278152 41.127482 0 0 0.02618,0.311 52.646413,51.278152 41.127482 0 0 0.02837,0.310854 52.646413,51.278152 41.127482 0 0 0.02978,0.310022 52.646413,51.278152 41.127482 0 0 0.03201,0.310606 52.646413,51.278152 41.127482 0 0 0.06908,0.620137 52.646413,51.278152 41.127482 0 0 0.03746,0.309869 52.646413,51.278152 41.127482 0 0 0.08036,0.619007 52.646413,51.278152 41.127482 0 0 0.04329,0.309476 52.646413,51.278152 41.127482 0 0 0.04475,0.309376 52.646413,51.278152 41.127482 0 0 0.04655,0.308888 52.646413,51.278152 41.127482 0 0 0.01052,0.06887 52.646413,51.278152 41.127482 0 0 0.03782,0.239527 52.646413,51.278152 41.127482 0 0 0.05053,0.308254 52.646413,51.278152 41.127482 0 0 0.05238,0.308493 52.646413,51.278152 41.127482 0 0 0.05379,0.307667 52.646413,51.278152 41.127482 0 0 0.05353,0.293034 52.646413,51.278152 41.127482 0 0 0.0037,0.02173 52.646413,51.278152 41.127482 0 0 0.01149,0.06148 52.646413,51.278152 41.127482 0 0 0.04545,0.238644 52.646413,51.278152 41.127482 0 0 0.05757,0.29862 52.646413,51.278152 41.127482 0 0 0.0023,0.01157 52.646413,51.278152 41.127482 0 0 0.124391,0.609433 52.646413,51.278152 41.127482 0 0 0.06506,0.306538 52.646413,51.278152 41.127482 0 0 0.05348,0.243595 52.646413,51.278152 41.127482 0 0 0.02017,0.09239 52.646413,51.278152 41.127482 0 0 0.0084,0.03752 52.646413,51.278152 41.127482 0 0 0.05376,0.236981 52.646413,51.278152 41.127482 0 0 0.06431,0.279121 52.646413,51.278152 41.127482 0 0 0.0102,0.04252 52.646413,51.278152 41.127482 0 0 0.03173,0.133362 52.646413,51.278152 41.127482 0 0 0.05112,0.214088 52.646413,51.278152 41.127482 0 0 0.002,0.0087 52.646413,51.278152 41.127482 0 0 0.211988,0.843026 52.646413,51.278152 41.127482 0 0 0.161139,0.605848 52.646413,51.278152 41.127482 0 0 0.08305,0.301659 52.646413,51.278152 41.127482 0 0 0.08523,0.301506 52.646413,51.278152 41.127482 0 0 0.01922,0.06755 52.646413,51.278152 41.127482 0 0 0.06781,0.233468 52.646413,51.278152 41.127482 0 0 0.06712,0.228754 52.646413,51.278152 41.127482 0 0 0.02137,0.07217 52.646413,51.278152 41.127482 0 0 0.02029,0.06711 52.646413,51.278152 41.127482 0 0 0.07126,0.235797 52.646413,51.278152 41.127482 0 0 0.185726,0.595757 52.646413,51.278152 41.127482 0 0 0.193507,0.597064 52.646413,51.278152 41.127482 0 0 0.20065,0.594383 52.646413,51.278152 41.127482 0 0 0.103216,0.296629 52.646413,51.278152 41.127482 0 0 0.09643,0.272185 52.646413,51.278152 41.127482 0 0 0.01219,0.03397 52.646413,51.278152 41.127482 0 0 0.0195,0.05545 52.646413,51.278152 41.127482 0 0 0.08326,0.229125 52.646413,51.278152 41.127482 0 0 0.108221,0.294828 52.646413,51.278152 41.127482 0 0 0.06674,0.179703 52.646413,51.278152 41.127482 0 0 0.05937,0.157493 52.646413,51.278152 41.127482 0 0 0.0085,0.0225 52.646413,51.278152 41.127482 0 0 0.0872,0.22776 52.646413,51.278152 41.127482 0 0 0.346097,0.876435 52.646413,51.278152 41.127482 0 0 0.118572,0.290827 52.646413,51.278152 41.127482 0 0 0.111648,0.269688 52.646413,51.278152 41.127482 0 0 0.01262,0.02955 52.646413,51.278152 41.127482 0 0 0.0232,0.05593 52.646413,51.278152 41.127482 0 0 0.09542,0.224641 52.646413,51.278152 41.127482 0 0 0.123576,0.289025 52.646413,51.278152 41.127482 0 0 0.125717,0.288147 52.646413,51.278152 41.127482 0 0 0.256386,0.573764 52.646413,51.278152 41.127482 0 0 0.131061,0.285953 52.646413,51.278152 41.127482 0 0 0.402416,0.853575 52.646413,51.278152 41.127482 0 0 0.137815,0.282933 52.646413,51.278152 41.127482 0 0 0.279857,0.563386 52.646413,51.278152 41.127482 0 0 0.14277,0.2804 52.646413,51.278152 41.127482 0 0 0.422009,0.807569 52.646413,51.278152 41.127482 0 0 0.02723,0.05053 52.646413,51.278152 41.127482 0 0 0.02143,0.04067 52.646413,51.278152 41.127482 0 0 0.116405,0.21553 52.646413,51.278152 41.127482 0 0 0.150544,0.276211 52.646413,51.278152 41.127482 0 0 0.462666,0.823864 52.646413,51.278152 41.127482 0 0 0.157299,0.27319 52.646413,51.278152 41.127482 0 0 0.149941,0.25647 52.646413,51.278152 41.127482 0 0 0.01203,0.0208 52.646413,51.278152 41.127482 0 0 0.320082,0.53539 52.646413,51.278152 41.127482 0 0 0.329028,0.53772 52.646413,51.278152 41.127482 0 0 0.037,0.0598 52.646413,51.278152 41.127482 0 0 0.129766,0.2073 52.646413,51.278152 41.127482 0 0 0.338891,0.53192 52.646413,51.278152 41.127482 0 0 0.171727,0.26452 52.646413,51.278152 41.127482 0 0 0.524609,0.7867 52.646413,51.278152 41.127482 0 0 0.72053,1.03531 52.646413,51.278152 41.127482 0 0 0.184361,0.25635 52.646413,51.278152 41.127482 0 0 0.166391,0.22899 52.646413,51.278152 41.127482 0 0 0.02668,0.037 52.646413,51.278152 41.127482 0 0 0.03388,0.046 52.646413,51.278152 41.127482 0 0 0.145553,0.19707 52.646413,51.278152 41.127482 0 0 0.160739,0.21583 52.646413,51.278152 41.127482 0 0 0.05593,0.0742 52.646413,51.278152 41.127482 0 0 0.152511,0.20246 52.646413,51.278152 41.127482 0 0 0.01003,0.0129 52.646413,51.278152 41.127482 0 0 0.190917,0.25041 52.646413,51.278152 41.127482 0 0 0.193054,0.24953 52.646413,51.278152 41.127482 0 0 0.141941,0.18157 52.646413,51.278152 41.127482 0 0 0.07014,0.0894 52.646413,51.278152 41.127482 0 0 0.02565,0.0327 52.646413,51.278152 41.127482 0 0 0.152549,0.19221 52.646413,51.278152 41.127482 0 0 0.197232,0.24631 52.646413,51.278152 41.127482 0 0 0.198981,0.2451 52.646413,51.278152 41.127482 0 0 0.402138,0.48699 52.646413,51.278152 41.127482 0 0 0.203108,0.24115 52.646413,51.278152 41.127482 0 0 0.826814,0.95524 52.646413,51.278152 41.127482 0 0 0.210055,0.23555 52.646413,51.278152 41.127482 0 0 0.211803,0.23435 52.646413,51.278152 41.127482 0 0 0.119529,0.13181 c 0.0076,0.008 0.01565,0.0162 0.02326,0.0244 a 52.646413,51.278152 41.127482 0 0 1.773201,1.84817 c 0.0029,0.003 0.0057,0.006 0.0087,0.009 a 52.646413,51.278152 41.127482 0 0 0.01844,0.0182 52.646413,51.278152 41.127482 0 0 0.0216,0.0216 52.646413,51.278152 41.127482 0 0 0.18482,0.18196 52.646413,51.278152 41.127482 0 0 0.225885,0.22057 52.646413,51.278152 41.127482 0 0 0.141069,0.13622 52.646413,51.278152 41.127482 0 0 0.113624,0.1095 52.646413,51.278152 41.127482 0 0 0.05207,0.0496 52.646413,51.278152 41.127482 0 0 0.19026,0.18123 52.646413,51.278152 41.127482 0 0 0.196394,0.18521 52.646413,51.278152 41.127482 0 0 0.374333,0.34677 52.646413,51.278152 41.127482 0 0 0.123397,0.11324 52.646413,51.278152 41.127482 0 0 0.204462,0.18539 52.646413,51.278152 41.127482 0 0 0.120525,0.10868 52.646413,51.278152 41.127482 0 0 0.135318,0.12158 52.646413,51.278152 41.127482 0 0 0.0086,0.007 52.646413,51.278152 41.127482 0 0 0.194045,0.17219 52.646413,51.278152 41.127482 0 0 0.194724,0.17141 52.646413,51.278152 41.127482 0 0 0.05644,0.0493 52.646413,51.278152 41.127482 0 0 0.02842,0.0248 52.646413,51.278152 41.127482 0 0 0.196085,0.16984 52.646413,51.278152 41.127482 0 0 0.23992,0.20607 52.646413,51.278152 41.127482 0 0 0.04277,0.0367 c 6.12e-4,4e-4 0.0013,5.8e-4 0.0019,9.7e-4 a 52.646413,51.278152 41.127482 0 0 30.123053,12.60995 c 1.68e-4,3.6e-4 2.75e-4,7.2e-4 4.39e-4,0.001 a 52.646413,51.278152 41.127482 0 0 0.127037,0.0101 52.646413,51.278152 41.127482 0 0 0.311879,0.0247 52.646413,51.278152 41.127482 0 0 0.311778,0.0232 52.646413,51.278152 41.127482 0 0 0.312362,0.021 52.646413,51.278152 41.127482 0 0 0.311871,0.0192 52.646413,51.278152 41.127482 0 0 0.306231,0.017 52.646413,51.278152 41.127482 0 0 0.01473,0.001 52.646413,51.278152 41.127482 0 0 0.61576,0.0286 52.646413,51.278152 41.127482 0 0 0.93739,0.0296 52.646413,51.278152 41.127482 0 0 0.312103,0.006 52.646413,51.278152 41.127482 0 0 0.312684,0.004 52.646413,51.278152 41.127482 0 0 0.297564,0.003 52.646413,51.278152 41.127482 0 0 0.04395,-4e-5 52.646413,51.278152 41.127482 0 0 0.282782,6.4e-4 52.646413,51.278152 41.127482 0 0 0.311949,-0.001 52.646413,51.278152 41.127482 0 0 0.312191,-0.003 52.646413,51.278152 41.127482 0 0 0.31243,-0.005 52.646413,51.278152 41.127482 0 0 0.311946,-0.007 52.646413,51.278152 41.127482 0 0 0.935428,-0.0318 52.646413,51.278152 41.127482 0 0 0.31145,-0.0141 52.646413,51.278152 41.127482 0 0 0.311303,-0.0163 52.646413,51.278152 41.127482 0 0 0.281257,-0.0165 52.646413,51.278152 41.127482 0 0 0.07515,-0.004 52.646413,51.278152 41.127482 0 0 0.266187,-0.0173 52.646413,51.278152 41.127482 0 0 0.307312,-0.0212 52.646413,51.278152 41.127482 0 0 0.01638,-0.001 52.646413,51.278152 41.127482 0 0 0.255052,-0.0195 52.646413,51.278152 41.127482 0 0 0.0856,-0.007 52.646413,51.278152 41.127482 0 0 0.267693,-0.0222 52.646413,51.278152 41.127482 0 0 0.296706,-0.0263 52.646413,51.278152 41.127482 0 0 0.04185,-0.004 52.646413,51.278152 41.127482 0 0 0.281687,-0.0264 52.646413,51.278152 41.127482 0 0 0.309924,-0.0312 52.646413,51.278152 41.127482 0 0 0.309827,-0.0327 52.646413,51.278152 41.127482 0 0 0.30929,-0.0352 52.646413,51.278152 41.127482 0 0 0.309191,-0.0367 52.646413,51.278152 41.127482 0 0 0.308702,-0.0385 52.646413,51.278152 41.127482 0 0 0.277739,-0.036 52.646413,51.278152 41.127482 0 0 0.101976,-0.0139 52.646413,51.278152 41.127482 0 0 0.132112,-0.0177 52.646413,51.278152 41.127482 0 0 0.104844,-0.0148 52.646413,51.278152 41.127482 0 0 0.615788,-0.09 52.646413,51.278152 41.127482 0 0 0.307332,-0.0479 52.646413,51.278152 41.127482 0 0 0.306844,-0.0497 52.646413,51.278152 41.127482 0 0 0.269076,-0.045 52.646413,51.278152 41.127482 0 0 0.06664,-0.0111 52.646413,51.278152 41.127482 0 0 0.569642,-0.10082 52.646413,51.278152 41.127482 0 0 0.04015,-0.007 52.646413,51.278152 41.127482 0 0 0.26149,-0.0488 52.646413,51.278152 41.127482 0 0 0.07918,-0.0152 52.646413,51.278152 41.127482 0 0 0.189067,-0.0366 52.646413,51.278152 41.127482 0 0 0.108435,-0.0213 52.646413,51.278152 41.127482 0 0 0.250063,-0.0499 52.646413,51.278152 41.127482 0 0 0.304498,-0.0627 52.646413,51.278152 41.127482 0 0 0.30367,-0.0641 52.646413,51.278152 41.127482 0 0 0.893644,-0.20003 52.646413,51.278152 41.127482 0 0 0.05516,-0.0129 52.646413,51.278152 41.127482 0 0 0.238244,-0.0568 52.646413,51.278152 41.127482 0 0 0.10595,-0.0255 52.646413,51.278152 41.127482 0 0 0.159607,-0.039 52.646413,51.278152 41.127482 0 0 0.15523,-0.0387 52.646413,51.278152 41.127482 0 0 0.167479,-0.0417 52.646413,51.278152 41.127482 0 0 0.141135,-0.0359 52.646413,51.278152 41.127482 0 0 0.123154,-0.031 52.646413,51.278152 41.127482 0 0 0.223463,-0.0587 52.646413,51.278152 41.127482 0 0 0.07917,-0.0207 52.646413,51.278152 41.127482 0 0 0.143905,-0.0383 52.646413,51.278152 41.127482 0 0 0.2273,-0.0615 52.646413,51.278152 41.127482 0 0 0.29913,-0.0825 52.646413,51.278152 41.127482 0 0 0.292177,-0.0824 52.646413,51.278152 41.127482 0 0 0.04637,-0.013 52.646413,51.278152 41.127482 0 0 0.193617,-0.056 52.646413,51.278152 41.127482 0 0 0.148663,-0.0438 52.646413,51.278152 41.127482 0 0 0.195706,-0.0576 52.646413,51.278152 41.127482 0 0 0.04413,-0.0136 52.646413,51.278152 41.127482 0 0 0.269185,-0.0812 52.646413,51.278152 41.127482 0 0 0.296691,-0.0915 52.646413,51.278152 41.127482 0 0 0.272194,-0.0855 52.646413,51.278152 41.127482 0 0 0.06881,-0.0222 52.646413,51.278152 41.127482 0 0 0.239439,-0.077 52.646413,51.278152 41.127482 0 0 0.01934,-0.006 52.646413,51.278152 41.127482 0 0 0.284437,-0.094 52.646413,51.278152 41.127482 0 0 0.276857,-0.0924 52.646413,51.278152 41.127482 0 0 0.03363,-0.0118 52.646413,51.278152 41.127482 0 0 0.275978,-0.0945 52.646413,51.278152 41.127482 0 0 0.292305,-0.1022 52.646413,51.278152 41.127482 0 0 0.291814,-0.10398 52.646413,51.278152 41.127482 0 0 0.290989,-0.1054 52.646413,51.278152 41.127482 0 0 0.290111,-0.10754 52.646413,51.278152 41.127482 0 0 0.290011,-0.10899 52.646413,51.278152 41.127482 0 0 0.281652,-0.10807 52.646413,51.278152 41.127482 0 0 0.01429,-0.005 52.646413,51.278152 41.127482 0 0 0.280774,-0.1102 52.646413,51.278152 41.127482 0 0 0.249673,-0.0989 52.646413,51.278152 41.127482 0 0 0.125856,-0.0506 52.646413,51.278152 41.127482 0 0 0.160746,-0.0654 52.646413,51.278152 41.127482 0 0 0.100538,-0.0405 52.646413,51.278152 41.127482 0 0 0.200592,-0.0828 52.646413,51.278152 41.127482 0 0 0.05126,-0.0218 52.646413,51.278152 41.127482 0 0 0.256422,-0.10745 52.646413,51.278152 41.127482 0 0 0.254184,-0.10804 52.646413,51.278152 41.127482 0 0 0.06871,-0.0292 52.646413,51.278152 41.127482 0 0 0.233725,-0.10188 52.646413,51.278152 41.127482 0 0 0.03917,-0.0166 52.646413,51.278152 41.127482 0 0 0.255297,-0.11324 52.646413,51.278152 41.127482 0 0 0.563264,-0.25458 52.646413,51.278152 41.127482 0 0 0.249657,-0.11542 52.646413,51.278152 41.127482 0 0 0.06851,-0.0321 52.646413,51.278152 41.127482 0 0 0.241735,-0.11342 52.646413,51.278152 41.127482 0 0 0.277786,-0.1327 52.646413,51.278152 41.127482 0 0 0.005,-0.002 52.646413,51.278152 41.127482 0 0 0.252471,-0.12257 52.646413,51.278152 41.127482 0 0 0.0571,-0.0277 52.646413,51.278152 41.127482 0 0 0.23284,-0.11502 52.646413,51.278152 41.127482 0 0 0.0294,-0.0148 52.646413,51.278152 41.127482 0 0 0.2083,-0.10419 52.646413,51.278152 41.127482 0 0 0.20718,-0.10449 52.646413,51.278152 41.127482 0 0 0.0301,-0.0156 52.646413,51.278152 41.127482 0 0 0.23045,-0.11778 52.646413,51.278152 41.127482 0 0 0.0601,-0.0312 52.646413,51.278152 41.127482 0 0 0.12628,-0.0661 52.646413,51.278152 41.127482 0 0 0.21611,-0.11315 52.646413,51.278152 41.127482 0 0 0.27257,-0.1448 52.646413,51.278152 41.127482 0 0 0.23958,-0.12902 52.646413,51.278152 41.127482 0 0 0.11092,-0.0602 52.646413,51.278152 41.127482 0 0 0.16738,-0.0919 52.646413,51.278152 41.127482 0 0 0.0491,-0.0271 52.646413,51.278152 41.127482 0 0 0.24497,-0.13598 52.646413,51.278152 41.127482 0 0 0.26882,-0.15151 52.646413,51.278152 41.127482 0 0 0.26236,-0.14961 52.646413,51.278152 41.127482 0 0 0.0201,-0.012 52.646413,51.278152 41.127482 0 0 0.25269,-0.14639 52.646413,51.278152 41.127482 0 0 0.23743,-0.13913 52.646413,51.278152 41.127482 0 0 0.12394,-0.0736 52.646413,51.278152 41.127482 0 0 0.11261,-0.0677 52.646413,51.278152 41.127482 0 0 0.15591,-0.0937 52.646413,51.278152 41.127482 0 0 0.11718,-0.0706 52.646413,51.278152 41.127482 0 0 0.11363,-0.0689 52.646413,51.278152 41.127482 0 0 0.16208,-0.1 52.646413,51.278152 41.127482 0 0 0.12266,-0.0761 52.646413,51.278152 41.127482 0 0 0.0847,-0.0523 52.646413,51.278152 41.127482 0 0 0.0893,-0.0559 52.646413,51.278152 41.127482 0 0 0.25365,-0.15927 52.646413,51.278152 41.127482 0 0 0.0197,-0.0123 52.646413,51.278152 41.127482 0 0 0.24747,-0.15849 52.646413,51.278152 41.127482 0 0 0.25894,-0.16768 52.646413,51.278152 41.127482 0 0 0.24655,-0.16136 52.646413,51.278152 41.127482 0 0 0.04,-0.0262 52.646413,51.278152 41.127482 0 0 0.22813,-0.15205 52.646413,51.278152 41.127482 0 0 0.25533,-0.1722 52.646413,51.278152 41.127482 0 0 0.25451,-0.17362 52.646413,51.278152 41.127482 0 0 0.19456,-0.13403 52.646413,51.278152 41.127482 0 0 0.15458,-0.10788 52.646413,51.278152 41.127482 0 0 0.0706,-0.0495 52.646413,51.278152 41.127482 0 0 0.086,-0.0608 52.646413,51.278152 41.127482 0 0 0.24571,-0.17375 52.646413,51.278152 41.127482 0 0 0.0168,-0.0121 52.646413,51.278152 41.127482 0 0 0.23886,-0.17219 52.646413,51.278152 41.127482 0 0 0.2492,-0.18168 52.646413,51.278152 41.127482 0 0 0.24803,-0.1827 52.646413,51.278152 41.127482 0 0 0.22971,-0.17193 52.646413,51.278152 41.127482 0 0 0.0854,-0.064 52.646413,51.278152 41.127482 0 0 0.12678,-0.0965 52.646413,51.278152 41.127482 0 0 0.1602,-0.12219 52.646413,51.278152 41.127482 0 0 0.0682,-0.0522 52.646413,51.278152 41.127482 0 0 0.22621,-0.17499 52.646413,51.278152 41.127482 0 0 0.17706,-0.13834 52.646413,51.278152 41.127482 0 0 0.13105,-0.10373 52.646413,51.278152 41.127482 0 0 0.0508,-0.0401 52.646413,51.278152 41.127482 0 0 0.1873,-0.14929 52.646413,51.278152 41.127482 0 0 0.0531,-0.0428 52.646413,51.278152 41.127482 0 0 0.1737,-0.1392 52.646413,51.278152 41.127482 0 0 0.0826,-0.0671 52.646413,51.278152 41.127482 0 0 0.18841,-0.15449 52.646413,51.278152 41.127482 0 0 0.23723,-0.19625 52.646413,51.278152 41.127482 0 0 0.21663,-0.18131 52.646413,51.278152 41.127482 0 0 0.0454,-0.0379 52.646413,51.278152 41.127482 0 0 0.2088,-0.17785 52.646413,51.278152 41.127482 0 0 0.18831,-0.16144 52.646413,51.278152 41.127482 0 0 0.11351,-0.0978 52.646413,51.278152 41.127482 0 0 0.16426,-0.14333 52.646413,51.278152 41.127482 0 0 0.20395,-0.17935 52.646413,51.278152 41.127482 0 0 0.11088,-0.0987 52.646413,51.278152 41.127482 0 0 0.10088,-0.0896 52.646413,51.278152 41.127482 0 0 0.12462,-0.11208 52.646413,51.278152 41.127482 0 0 0.097,-0.0875 52.646413,51.278152 41.127482 0 0 0.20145,-0.18357 52.646413,51.278152 41.127482 0 0 0.16586,-0.15224 52.646413,51.278152 41.127482 0 0 0.12783,-0.11889 52.646413,51.278152 41.127482 0 0 0.0286,-0.0265 52.646413,51.278152 41.127482 0 0 0.17086,-0.15953 52.646413,51.278152 41.127482 0 0 0.14385,-0.13645 52.646413,51.278152 41.127482 0 0 0.0572,-0.0537 52.646413,51.278152 41.127482 0 0 0.11452,-0.10994 52.646413,51.278152 41.127482 0 0 0.16473,-0.15801 52.646413,51.278152 41.127482 0 0 0.20208,-0.19607 52.646413,51.278152 41.127482 0 0 0.0817,-0.0802 52.646413,51.278152 41.127482 0 0 0.0814,-0.0799 52.646413,51.278152 41.127482 0 0 0.0597,-0.059 52.646413,51.278152 41.127482 0 0 0.0593,-0.0593 52.646413,51.278152 41.127482 0 0 0.13248,-0.1313 52.646413,51.278152 41.127482 0 0 0.10529,-0.10564 52.646413,51.278152 41.127482 0 0 0.10456,-0.1056 52.646413,51.278152 41.127482 0 0 0.13466,-0.13693 52.646413,51.278152 41.127482 0 0 0.0839,-0.0859 52.646413,51.278152 41.127482 0 0 0.0883,-0.091 52.646413,51.278152 41.127482 0 0 0.0976,-0.10001 52.646413,51.278152 41.127482 0 0 0.13821,-0.14413 52.646413,51.278152 41.127482 0 0 0.0999,-0.10418 52.646413,51.278152 41.127482 0 0 0.13126,-0.13854 52.646413,51.278152 41.127482 0 0 0.083,-0.088 52.646413,51.278152 41.127482 0 0 0.0892,-0.095 52.646413,51.278152 41.127482 0 0 0.12466,-0.13332 52.646413,51.278152 41.127482 0 0 0.10338,-0.11211 52.646413,51.278152 41.127482 0 0 0.099,-0.10705 52.646413,51.278152 41.127482 0 0 0.032,-0.0351 52.646413,51.278152 41.127482 0 0 0.17826,-0.19629 52.646413,51.278152 41.127482 0 0 0.0858,-0.0952 52.646413,51.278152 41.127482 0 0 0.093,-0.10262 52.646413,51.278152 41.127482 0 0 0.13072,-0.14655 52.646413,51.278152 41.127482 0 0 0.0739,-0.083 52.646413,51.278152 41.127482 0 0 0.0554,-0.0627 52.646413,51.278152 41.127482 0 0 0.0924,-0.10588 52.646413,51.278152 41.127482 0 0 0.11052,-0.12578 52.646413,51.278152 41.127482 0 0 0.14679,-0.16889 52.646413,51.278152 41.127482 0 0 0.0547,-0.0634 52.646413,51.278152 41.127482 0 0 0.0723,-0.0844 52.646413,51.278152 41.127482 0 0 0.0977,-0.11429 52.646413,51.278152 41.127482 0 0 0.11871,-0.13988 52.646413,51.278152 41.127482 0 0 0.0834,-0.0994 52.646413,51.278152 41.127482 0 0 0.0793,-0.094 52.646413,51.278152 41.127482 0 0 0.12095,-0.1448 52.646413,51.278152 41.127482 0 0 0.0931,-0.11287 52.646413,51.278152 41.127482 0 0 0.0971,-0.11755 52.646413,51.278152 41.127482 0 0 0.11531,-0.14149 52.646413,51.278152 41.127482 0 0 0.0821,-0.10115 52.646413,51.278152 41.127482 0 0 0.076,-0.0941 52.646413,51.278152 41.127482 0 0 0.11959,-0.14873 52.646413,51.278152 41.127482 0 0 0.0898,-0.11302 52.646413,51.278152 41.127482 0 0 0.0962,-0.12114 52.646413,51.278152 41.127482 0 0 0.10758,-0.13657 52.646413,51.278152 41.127482 0 0 0.0893,-0.11482 52.646413,51.278152 41.127482 0 0 0.0637,-0.0816 52.646413,51.278152 41.127482 0 0 0.12293,-0.15885 52.646413,51.278152 41.127482 0 0 0.0905,-0.11783 52.646413,51.278152 41.127482 0 0 0.0905,-0.11856 52.646413,51.278152 41.127482 0 0 0.11224,-0.14897 52.646413,51.278152 41.127482 0 0 0.0746,-0.0988 52.646413,51.278152 41.127482 0 0 0.0897,-0.11997 52.646413,51.278152 41.127482 0 0 0.0749,-0.0999 52.646413,51.278152 41.127482 0 0 0.16569,-0.22511 52.646413,51.278152 41.127482 0 0 0.13471,-0.18491 52.646413,51.278152 41.127482 0 0 0.0928,-0.12751 52.646413,51.278152 41.127482 0 0 0.0458,-0.0643 52.646413,51.278152 41.127482 0 0 0.11646,-0.16244 52.646413,51.278152 41.127482 0 0 0.0325,-0.0451 52.646413,51.278152 41.127482 0 0 0.13335,-0.18885 52.646413,51.278152 41.127482 0 0 0.0441,-0.0623 52.646413,51.278152 41.127482 0 0 0.0437,-0.0627 52.646413,51.278152 41.127482 0 0 0.13218,-0.18987 52.646413,51.278152 41.127482 0 0 0.15975,-0.23166 52.646413,51.278152 41.127482 0 0 0.0613,-0.0898 52.646413,51.278152 41.127482 0 0 0.10126,-0.14896 52.646413,51.278152 41.127482 0 0 0.0755,-0.11242 52.646413,51.278152 41.127482 0 0 0.0835,-0.12468 52.646413,51.278152 41.127482 0 0 0.14994,-0.22514 52.646413,51.278152 41.127482 0 0 0.11591,-0.17595 52.646413,51.278152 41.127482 0 0 0.0909,-0.13946 52.646413,51.278152 41.127482 0 0 0.12891,-0.20027 52.646413,51.278152 41.127482 0 0 0.15502,-0.24196 52.646413,51.278152 41.127482 0 0 0.0182,-0.0287 52.646413,51.278152 41.127482 0 0 0.15672,-0.2494 52.646413,51.278152 41.127482 0 0 0.16249,-0.26151 52.646413,51.278152 41.127482 0 0 0.12769,-0.20752 52.646413,51.278152 41.127482 0 0 0.0554,-0.0909 52.646413,51.278152 41.127482 0 0 0.12972,-0.21534 52.646413,51.278152 41.127482 0 0 0.0105,-0.0176 52.646413,51.278152 41.127482 0 0 0.15423,-0.25912 52.646413,51.278152 41.127482 0 0 0.1058,-0.1793 52.646413,51.278152 41.127482 0 0 0.10336,-0.1773 52.646413,51.278152 41.127482 0 0 0.13442,-0.2325 52.646413,51.278152 41.127482 0 0 0.0821,-0.14437 52.646413,51.278152 41.127482 0 0 0.0563,-0.099 52.646413,51.278152 41.127482 0 0 0.0883,-0.15614 52.646413,51.278152 41.127482 0 0 0.0621,-0.11114 52.646413,51.278152 41.127482 0 0 0.13189,-0.23747 52.646413,51.278152 41.127482 0 0 0.14761,-0.27039 52.646413,51.278152 41.127482 0 0 0.14609,-0.27102 52.646413,51.278152 41.127482 0 0 0.12999,-0.24393 52.646413,51.278152 41.127482 0 0 0.025,-0.0475 52.646413,51.278152 41.127482 0 0 0.13226,-0.253599 52.646413,51.278152 41.127482 0 0 0.0881,-0.170041 52.646413,51.278152 41.127482 0 0 0.0861,-0.167706 52.646413,51.278152 41.127482 0 0 0.10659,-0.210847 52.646413,51.278152 41.127482 0 0 0.27429,-0.552184 52.646413,51.278152 41.127482 0 0 0.13433,-0.277183 52.646413,51.278152 41.127482 0 0 0.13277,-0.278543 52.646413,51.278152 41.127482 0 0 0.13092,-0.278784 52.646413,51.278152 41.127482 0 0 0.10803,-0.232919 52.646413,51.278152 41.127482 0 0 0.0367,-0.07976 52.646413,51.278152 41.127482 0 0 0.11214,-0.247847 52.646413,51.278152 41.127482 0 0 0.11398,-0.253098 52.646413,51.278152 41.127482 0 0 0.0175,-0.03964 52.646413,51.278152 41.127482 0 0 0.0997,-0.226493 52.646413,51.278152 41.127482 0 0 0.0387,-0.08832 52.646413,51.278152 41.127482 0 0 0.0569,-0.132772 52.646413,51.278152 41.127482 0 0 0.0718,-0.167107 52.646413,51.278152 41.127482 0 0 0.0519,-0.120711 52.646413,51.278152 41.127482 0 0 0.0574,-0.136467 52.646413,51.278152 41.127482 0 0 0.0269,-0.06298 52.646413,51.278152 41.127482 0 0 0.0888,-0.213307 52.646413,51.278152 41.127482 0 0 0.0296,-0.07159 52.646413,51.278152 41.127482 0 0 0.0795,-0.193999 52.646413,51.278152 41.127482 0 0 0.11289,-0.280127 52.646413,51.278152 41.127482 0 0 0.11389,-0.286788 52.646413,51.278152 41.127482 0 0 0.0865,-0.22084 52.646413,51.278152 41.127482 0 0 0.051,-0.133106 52.646413,51.278152 41.127482 0 0 0.0579,-0.15042 52.646413,51.278152 41.127482 0 0 0.0314,-0.08306 52.646413,51.278152 41.127482 0 0 0.10395,-0.276958 52.646413,51.278152 41.127482 0 0 0.0965,-0.262171 52.646413,51.278152 41.127482 0 0 0.0159,-0.04173 52.646413,51.278152 41.127482 0 0 0.0836,-0.231629 52.646413,51.278152 41.127482 0 0 0.0265,-0.07431 52.646413,51.278152 41.127482 0 0 0.0677,-0.189903 52.646413,51.278152 41.127482 0 0 0.0252,-0.07129 52.646413,51.278152 41.127482 0 0 0.0834,-0.240039 52.646413,51.278152 41.127482 0 0 0.0233,-0.06677 52.646413,51.278152 41.127482 0 0 0.0944,-0.277045 52.646413,51.278152 41.127482 0 0 0.0856,-0.255209 52.646413,51.278152 41.127482 0 0 0.0197,-0.0603 52.646413,51.278152 41.127482 0 0 0.0874,-0.266683 52.646413,51.278152 41.127482 0 0 0.002,-0.0053 52.646413,51.278152 41.127482 0 0 0.0941,-0.293136 52.646413,51.278152 41.127482 0 0 0.0732,-0.233126 52.646413,51.278152 41.127482 0 0 0.0325,-0.104746 52.646413,51.278152 41.127482 0 0 0.0778,-0.252479 52.646413,51.278152 41.127482 0 0 0.17131,-0.574879 52.646413,51.278152 41.127482 0 0 0.0112,-0.03958 52.646413,51.278152 41.127482 0 0 0.0232,-0.07921 52.646413,51.278152 41.127482 0 0 0.0602,-0.209535 52.646413,51.278152 41.127482 0 0 0.0546,-0.193779 52.646413,51.278152 41.127482 0 0 0.0456,-0.165331 52.646413,51.278152 41.127482 0 0 0.0607,-0.222759 52.646413,51.278152 41.127482 0 0 0.0723,-0.268953 52.646413,51.278152 41.127482 0 0 0.0143,-0.05334 52.646413,51.278152 41.127482 0 0 0.055,-0.209919 52.646413,51.278152 41.127482 0 0 0.0266,-0.10508 52.646413,51.278152 41.127482 0 0 0.0568,-0.221393 52.646413,51.278152 41.127482 0 0 0.0127,-0.04994 52.646413,51.278152 41.127482 0 0 0.0716,-0.289418 52.646413,51.278152 41.127482 0 0 0.0645,-0.264765 52.646413,51.278152 41.127482 0 0 0.0143,-0.05956 52.646413,51.278152 41.127482 0 0 0.0651,-0.277259 52.646413,51.278152 41.127482 0 0 0.13603,-0.603622 52.646413,51.278152 41.127482 0 0 0.0656,-0.302926 52.646413,51.278152 41.127482 0 0 0.12524,-0.606188 52.646413,51.278152 41.127482 0 0 0.0564,-0.286194 52.646413,51.278152 41.127482 0 0 0.008,-0.04006 52.646413,51.278152 41.127482 0 0 0.0542,-0.282012 52.646413,51.278152 41.127482 0 0 0.0542,-0.291539 52.646413,51.278152 41.127482 0 0 0.004,-0.02261 52.646413,51.278152 41.127482 0 0 0.044,-0.247632 52.646413,51.278152 41.127482 0 0 0.0135,-0.07673 52.646413,51.278152 41.127482 0 0 0.0132,-0.07488 52.646413,51.278152 41.127482 0 0 0.0346,-0.202315 52.646413,51.278152 41.127482 0 0 0.05,-0.304806 52.646413,51.278152 41.127482 0 0 0.0489,-0.305827 52.646413,51.278152 41.127482 0 0 0.0331,-0.213931 52.646413,51.278152 41.127482 0 0 0.0295,-0.197205 52.646413,51.278152 41.127482 0 0 0.0296,-0.201969 52.646413,51.278152 41.127482 0 0 9.7e-4,-0.0074 52.646413,51.278152 41.127482 0 0 0.0423,-0.299889 52.646413,51.278152 41.127482 0 0 0.0411,-0.307131 52.646413,51.278152 41.127482 0 0 0.0303,-0.23352 52.646413,51.278152 41.127482 0 0 0.0186,-0.147754 52.646413,51.278152 41.127482 0 0 0.0142,-0.115228 52.646413,51.278152 41.127482 0 0 0.0189,-0.154366 52.646413,51.278152 41.127482 0 0 0.0246,-0.210422 52.646413,51.278152 41.127482 0 0 0.0114,-0.101857 52.646413,51.278152 41.127482 0 0 0.0188,-0.171574 52.646413,51.278152 41.127482 0 0 0.0157,-0.146099 52.646413,51.278152 41.127482 0 0 0.0262,-0.250822 52.646413,51.278152 41.127482 0 0 0.001,-0.01215 52.646413,51.278152 41.127482 0 0 0.0264,-0.265114 52.646413,51.278152 41.127482 0 0 0.006,-0.05936 52.646413,51.278152 41.127482 0 0 0.0261,-0.290733 52.646413,51.278152 41.127482 0 0 0.0741,-0.928683 52.646413,51.278152 41.127482 0 0 0.0208,-0.309784 52.646413,51.278152 41.127482 0 0 0.0193,-0.309686 52.646413,51.278152 41.127482 0 0 0.0171,-0.310266 52.646413,51.278152 41.127482 0 0 0.0142,-0.283332 52.646413,51.278152 41.127482 0 0 0.002,-0.04443 52.646413,51.278152 41.127482 0 0 0.004,-0.08892 52.646413,51.278152 41.127482 0 0 0.008,-0.204572 52.646413,51.278152 41.127482 0 0 0.0116,-0.310261 52.646413,51.278152 41.127482 0 0 0.009,-0.310842 52.646413,51.278152 41.127482 0 0 0.008,-0.311132 52.646413,51.278152 41.127482 0 0 0.01,-0.621821 52.646413,51.278152 41.127482 0 0 0.002,-0.311077 52.646413,51.278152 41.127482 0 0 6.2e-4,-0.29377 52.646413,51.278152 41.127482 0 0 -1.3e-4,-0.03442 52.646413,51.278152 41.127482 0 0 -1.9e-4,-0.08935 52.646413,51.278152 41.127482 0 0 -0.001,-0.205 52.646413,51.278152 41.127482 0 0 -0.004,-0.311072 52.646413,51.278152 41.127482 0 0 -0.005,-0.311313 52.646413,51.278152 41.127482 0 0 -0.007,-0.310825 52.646413,51.278152 41.127482 0 0 -0.009,-0.311406 52.646413,51.278152 41.127482 0 0 -0.0108,-0.311306 52.646413,51.278152 41.127482 0 0 -0.004,-0.106315 52.646413,51.278152 41.127482 0 0 -0.01,-0.231533 52.646413,51.278152 41.127482 0 0 -0.0138,-0.284372 52.646413,51.278152 41.127482 0 0 -0.0141,-0.268235 52.646413,51.278152 41.127482 0 0 -0.005,-0.08575 52.646413,51.278152 41.127482 0 0 -0.016,-0.268474 52.646413,51.278152 41.127482 0 0 -0.0203,-0.310666 52.646413,51.278152 41.127482 0 0 -0.0221,-0.310906 52.646413,51.278152 41.127482 0 0 -0.024,-0.311148 52.646413,51.278152 41.127482 0 0 -0.0258,-0.31066 52.646413,51.278152 41.127482 0 0 -0.028,-0.310513 52.646413,51.278152 41.127482 0 0 -0.0611,-0.621408 52.646413,51.278152 41.127482 0 0 -0.0334,-0.309777 52.646413,51.278152 41.127482 0 0 -0.0116,-0.10616 52.646413,51.278152 41.127482 0 0 -0.0264,-0.22821 52.646413,51.278152 41.127482 0 0 -0.0344,-0.285909 52.646413,51.278152 41.127482 0 0 -0.0389,-0.309771 52.646413,51.278152 41.127482 0 0 -0.0407,-0.309283 52.646413,51.278152 41.127482 0 0 -0.0426,-0.309526 52.646413,51.278152 41.127482 0 0 -0.0497,-0.344568 52.646413,51.278152 41.127482 0 0 -0.0102,-0.06999 52.646413,51.278152 41.127482 0 0 -0.031,-0.203366 52.646413,51.278152 41.127482 0 0 -0.048,-0.30879 52.646413,51.278152 41.127482 0 0 -0.10218,-0.616797 52.646413,51.278152 41.127482 0 0 -0.10942,-0.615572 52.646413,51.278152 41.127482 0 0 -0.0546,-0.292597 52.646413,51.278152 41.127482 0 0 -0.004,-0.02022 52.646413,51.278152 41.127482 0 0 -0.0581,-0.301148 52.646413,51.278152 41.127482 0 0 -0.0583,-0.293806 52.646413,51.278152 41.127482 0 0 -0.003,-0.01808 52.646413,51.278152 41.127482 0 0 -0.0621,-0.30124 52.646413,51.278152 41.127482 0 0 -0.0647,-0.306197 52.646413,51.278152 41.127482 0 0 -0.0665,-0.305708 52.646413,51.278152 41.127482 0 0 -0.0275,-0.124131 c 0,0 -3.9e-4,-3.39e-4 -3.9e-4,-3.39e-4 A 52.646413,51.278152 41.127482 0 0 120.80364,49.723044 22.231393,36.28464 41.127482 0 1 119.37578,70.219827 22.231393,36.28464 41.127482 0 1 95.510063,97.551134 22.231393,36.28464 41.127482 0 1 69.075414,98.553471 L 92.941128,71.222164 116.80684,43.890892 a 22.231393,36.28464 41.127482 0 1 0.008,0.007 52.646413,51.278152 41.127482 0 0 -6.42285,-6.85018 c -4.7e-4,-5.5e-4 -7.4e-4,-10e-4 -0.001,-0.002 a 52.646413,51.278152 41.127482 0 0 -0.0421,-0.0374 52.646413,51.278152 41.127482 0 0 -0.1937,-0.17257 52.646413,51.278152 41.127482 0 0 -0.005,-0.004 52.646413,51.278152 41.127482 0 0 -0.19044,-0.16767 52.646413,51.278152 41.127482 0 0 -0.0638,-0.0557 52.646413,51.278152 41.127482 0 0 -0.21677,-0.1886 52.646413,51.278152 41.127482 0 0 -0.12796,-0.11036 52.646413,51.278152 41.127482 0 0 -0.15434,-0.13202 52.646413,51.278152 41.127482 0 0 -0.19778,-0.16791 52.646413,51.278152 41.127482 0 0 -0.0306,-0.0254 52.646413,51.278152 41.127482 0 0 -0.21126,-0.17761 52.646413,51.278152 41.127482 0 0 -0.21384,-0.1778 52.646413,51.278152 41.127482 0 0 -0.0291,-0.024 52.646413,51.278152 41.127482 0 0 -0.1466,-0.12046 52.646413,51.278152 41.127482 0 0 -0.0977,-0.0798 52.646413,51.278152 41.127482 0 0 -0.24565,-0.19872 52.646413,51.278152 41.127482 0 0 -0.20522,-0.1641 52.646413,51.278152 41.127482 0 0 -0.0562,-0.0449 52.646413,51.278152 41.127482 0 0 -0.23294,-0.1842 52.646413,51.278152 41.127482 0 0 -0.24905,-0.19483 52.646413,51.278152 41.127482 0 0 -0.19748,-0.15255 52.646413,51.278152 41.127482 0 0 -0.0788,-0.0606 52.646413,51.278152 41.127482 0 0 -0.0228,-0.0171 52.646413,51.278152 41.127482 0 0 -2.07606,-1.51233 c -0.009,-0.006 -0.0182,-0.0133 -0.0273,-0.0198 a 52.646413,51.278152 41.127482 0 0 -0.40747,-0.27896 52.646413,51.278152 41.127482 0 0 -0.26172,-0.17639 52.646413,51.278152 41.127482 0 0 -0.79151,-0.52033 52.646413,51.278152 41.127482 0 0 -0.26609,-0.1706 52.646413,51.278152 41.127482 0 0 -1.07308,-0.66534 52.646413,51.278152 41.127482 0 0 -0.27065,-0.16224 52.646413,51.278152 41.127482 0 0 -0.81719,-0.47757 52.646413,51.278152 41.127482 0 0 -0.27463,-0.15611 52.646413,51.278152 41.127482 0 0 -0.27487,-0.15426 52.646413,51.278152 41.127482 0 0 -0.27623,-0.1527 52.646413,51.278152 41.127482 0 0 -0.21489,-0.11767 52.646413,51.278152 41.127482 0 0 -0.062,-0.0335 52.646413,51.278152 41.127482 0 0 -0.556683,-0.29743 52.646413,51.278152 41.127482 0 0 -0.840574,-0.4335 52.646413,51.278152 41.127482 0 0 -0.282052,-0.14132 52.646413,51.278152 41.127482 0 0 -0.850568,-0.41342 52.646413,51.278152 41.127482 0 0 -0.285252,-0.13451 52.646413,51.278152 41.127482 0 0 -0.285884,-0.13301 52.646413,51.278152 41.127482 0 0 -0.862063,-0.38846 52.646413,51.278152 41.127482 0 0 -0.288697,-0.12586 52.646413,51.278152 41.127482 0 0 -0.224837,-0.0968 52.646413,51.278152 41.127482 0 0 -0.06449,-0.0275 52.646413,51.278152 41.127482 0 0 -0.225857,-0.0957 52.646413,51.278152 41.127482 0 0 -0.06483,-0.0271 52.646413,51.278152 41.127482 0 0 -0.01619,-0.007 52.646413,51.278152 41.127482 0 0 -0.274342,-0.11401 52.646413,51.278152 41.127482 0 0 -0.291897,-0.11905 52.646413,51.278152 41.127482 0 0 -0.227069,-0.0919 52.646413,51.278152 41.127482 0 0 -0.06512,-0.026 52.646413,51.278152 41.127482 0 0 -0.227311,-0.0901 52.646413,51.278152 41.127482 0 0 -0.06546,-0.0256 52.646413,51.278152 41.127482 0 0 -0.22794,-0.0886 52.646413,51.278152 41.127482 0 0 -0.0658,-0.0252 52.646413,51.278152 41.127482 0 0 -0.293979,-0.11194 52.646413,51.278152 41.127482 0 0 -0.295,-0.11078 52.646413,51.278152 41.127482 0 0 -0.229153,-0.0848 52.646413,51.278152 41.127482 0 0 -0.06609,-0.0241 52.646413,51.278152 41.127482 0 0 -0.229783,-0.0833 52.646413,51.278152 41.127482 0 0 -0.06643,-0.0237 52.646413,51.278152 41.127482 0 0 -0.296453,-0.10519 52.646413,51.278152 41.127482 0 0 -0.297422,-0.10329 52.646413,51.278152 41.127482 0 0 -0.894885,-0.29981 52.646413,51.278152 41.127482 0 0 -0.299167,-0.0966 52.646413,51.278152 41.127482 0 0 -0.300136,-0.0947 52.646413,51.278152 41.127482 0 0 -0.300379,-0.0928 52.646413,51.278152 41.127482 0 0 -0.301347,-0.0909 52.646413,51.278152 41.127482 0 0 -0.233999,-0.0699 52.646413,51.278152 41.127482 0 0 -0.06725,-0.0196 52.646413,51.278152 41.127482 0 0 -0.234239,-0.068 52.646413,51.278152 41.127482 0 0 -0.06759,-0.0192 52.646413,51.278152 41.127482 0 0 -0.302462,-0.0857 52.646413,51.278152 41.127482 0 0 -0.235159,-0.0654 52.646413,51.278152 41.127482 0 0 -0.06754,-0.0185 52.646413,51.278152 41.127482 0 0 -0.01605,-0.004 52.646413,51.278152 41.127482 0 0 -0.591201,-0.15812 52.646413,51.278152 41.127482 0 0 -0.304154,-0.0783 52.646413,51.278152 41.127482 0 0 -0.236613,-0.0598 52.646413,51.278152 41.127482 0 0 -0.06817,-0.017 52.646413,51.278152 41.127482 0 0 -0.03574,-0.009 52.646413,51.278152 41.127482 0 0 -0.269286,-0.0664 52.646413,51.278152 41.127482 0 0 -0.30561,-0.0727 52.646413,51.278152 41.127482 0 0 -0.305896,-0.0716 52.646413,51.278152 41.127482 0 0 -0.612472,-0.1369 52.646413,51.278152 41.127482 0 0 -0.921997,-0.19176 52.646413,51.278152 41.127482 0 0 -0.616001,-0.11872 52.646413,51.278152 41.127482 0 0 -0.308557,-0.0568 52.646413,51.278152 41.127482 0 0 -0.239852,-0.0427 52.646413,51.278152 41.127482 0 0 -0.06895,-0.0122 52.646413,51.278152 41.127482 0 0 -0.0478,-0.008 52.646413,51.278152 41.127482 0 0 -0.570864,-0.0958 52.646413,51.278152 41.127482 0 0 -0.30952,-0.0494 52.646413,51.278152 41.127482 0 0 -0.240577,-0.0372 52.646413,51.278152 41.127482 0 0 -0.06919,-0.0103 52.646413,51.278152 41.127482 0 0 -0.240817,-0.0353 52.646413,51.278152 41.127482 0 0 -0.06953,-0.01 52.646413,51.278152 41.127482 0 0 -0.310243,-0.0438 52.646413,51.278152 41.127482 0 0 -0.310098,-0.0416 52.646413,51.278152 41.127482 0 0 -0.310728,-0.0401 52.646413,51.278152 41.127482 0 0 -0.241541,-0.0298 52.646413,51.278152 41.127482 0 0 -0.153587,-0.0182 52.646413,51.278152 41.127482 0 0 -0.22705,-0.0267 52.646413,51.278152 41.127482 0 0 -0.311061,-0.0342 52.646413,51.278152 41.127482 0 0 -0.311692,-0.0327 52.646413,51.278152 41.127482 0 0 -0.311544,-0.0306 52.646413,51.278152 41.127482 0 0 -0.311447,-0.0291 52.646413,51.278152 41.127482 0 0 -0.312025,-0.0268 52.646413,51.278152 41.127482 0 0 -0.311538,-0.0251 52.646413,51.278152 41.127482 0 0 -0.31217,-0.0236 52.646413,51.278152 41.127482 0 0 -0.242499,-0.0169 52.646413,51.278152 41.127482 0 0 -0.07983,-0.005 52.646413,51.278152 41.127482 0 0 -0.232093,-0.0147 52.646413,51.278152 41.127482 0 0 -0.07832,-0.005 52.646413,51.278152 41.127482 0 0 -0.303654,-0.0168 52.646413,51.278152 41.127482 0 0 -0.305063,-0.016 52.646413,51.278152 41.127482 0 0 -0.02202,-7.1e-4 52.646413,51.278152 41.127482 0 0 -0.297575,-0.0136 52.646413,51.278152 41.127482 0 0 -0.937098,-0.0307 52.646413,51.278152 41.127482 0 0 -0.312103,-0.006 52.646413,51.278152 41.127482 0 0 -0.312344,-0.004 52.646413,51.278152 41.127482 0 0 -0.242632,-0.003 52.646413,51.278152 41.127482 0 0 -0.120172,-6.6e-4 52.646413,51.278152 41.127482 0 0 -0.191973,-9.2e-4 52.646413,51.278152 41.127482 0 0 -0.09523,-1.4e-4 52.646413,51.278152 41.127482 0 0 -0.91134,0.009 52.646413,51.278152 41.127482 0 0 -0.242138,0.005 52.646413,51.278152 41.127482 0 0 -0.06947,0.002 52.646413,51.278152 41.127482 0 0 -0.312185,0.009 52.646413,51.278152 41.127482 0 0 -0.312085,0.0101 52.646413,51.278152 41.127482 0 0 -0.311207,0.0123 52.646413,51.278152 41.127482 0 0 -0.31184,0.0138 52.646413,51.278152 41.127482 0 0 -0.311692,0.016 52.646413,51.278152 41.127482 0 0 -0.311202,0.0178 52.646413,51.278152 41.127482 0 0 -0.241446,0.0149 52.646413,51.278152 41.127482 0 0 -0.06927,0.005 52.646413,51.278152 41.127482 0 0 -0.301477,0.0208 52.646413,51.278152 41.127482 0 0 -0.02805,0.002 52.646413,51.278152 41.127482 0 0 -0.292238,0.022 52.646413,51.278152 41.127482 0 0 -0.310711,0.0251 52.646413,51.278152 41.127482 0 0 -0.241052,0.0207 52.646413,51.278152 41.127482 0 0 -0.140477,0.0132 52.646413,51.278152 41.127482 0 0 -0.238765,0.022 52.646413,51.278152 41.127482 0 0 -0.240856,0.0236 52.646413,51.278152 41.127482 0 0 -0.06946,0.007 52.646413,51.278152 41.127482 0 0 -0.240027,0.025 52.646413,51.278152 41.127482 0 0 -0.07816,0.009 52.646413,51.278152 41.127482 0 0 -0.285714,0.0318 52.646413,51.278152 41.127482 0 0 -0.07486,0.009 52.646413,51.278152 41.127482 0 0 -0.227434,0.0271 52.646413,51.278152 41.127482 0 0 -0.11408,0.0136 52.646413,51.278152 41.127482 0 0 -0.182325,0.0226 52.646413,51.278152 41.127482 0 0 -0.0995,0.0126 52.646413,51.278152 41.127482 0 0 -0.243228,0.0318 52.646413,51.278152 41.127482 0 0 -0.612098,0.085 52.646413,51.278152 41.127482 0 0 -0.02537,0.004 52.646413,51.278152 41.127482 0 0 -0.286823,0.0425 52.646413,51.278152 41.127482 0 0 -0.307381,0.0472 52.646413,51.278152 41.127482 0 0 -0.306844,0.0497 52.646413,51.278152 41.127482 0 0 -0.613003,0.10412 52.646413,51.278152 41.127482 0 0 -0.306159,0.0544 52.646413,51.278152 41.127482 0 0 -0.302752,0.056 52.646413,51.278152 41.127482 0 0 -0.01264,0.003 52.646413,51.278152 41.127482 0 0 -0.227076,0.0432 52.646413,51.278152 41.127482 0 0 -0.06795,0.0134 52.646413,51.278152 41.127482 0 0 -0.236746,0.0464 52.646413,51.278152 41.127482 0 0 -0.157863,0.0323 52.646413,51.278152 41.127482 0 0 -0.199419,0.0406 52.646413,51.278152 41.127482 0 0 -0.0697,0.0146 52.646413,51.278152 41.127482 0 0 -0.220268,0.0464 52.646413,51.278152 41.127482 0 0 -0.08014,0.0172 52.646413,51.278152 41.127482 0 0 -0.252294,0.0548 52.646413,51.278152 41.127482 0 0 -0.303424,0.0678 52.646413,51.278152 41.127482 0 0 -0.302206,0.0695 52.646413,51.278152 41.127482 0 0 -0.250199,0.0587 52.646413,51.278152 41.127482 0 0 -0.117131,0.0281 52.646413,51.278152 41.127482 0 0 -0.532811,0.13092 52.646413,51.278152 41.127482 0 0 -0.03455,0.009 52.646413,51.278152 41.127482 0 0 -0.241934,0.0618 52.646413,51.278152 41.127482 0 0 -0.136761,0.0356 52.646413,51.278152 41.127482 0 0 -0.162664,0.0425 52.646413,51.278152 41.127482 0 0 -0.08884,0.024 52.646413,51.278152 41.127482 0 0 -0.240277,0.0646 52.646413,51.278152 41.127482 0 0 -0.29918,0.0818 52.646413,51.278152 41.127482 0 0 -0.298301,0.0839 52.646413,51.278152 41.127482 0 0 -0.297814,0.0857 52.646413,51.278152 41.127482 0 0 -0.297325,0.0875 52.646413,51.278152 41.127482 0 0 -0.283912,0.0855 52.646413,51.278152 41.127482 0 0 -0.05492,0.0165 52.646413,51.278152 41.127482 0 0 -0.240365,0.0741 52.646413,51.278152 41.127482 0 0 -0.04554,0.0144 52.646413,51.278152 41.127482 0 0 -0.263932,0.0831 52.646413,51.278152 41.127482 0 0 -0.229089,0.073 52.646413,51.278152 41.127482 0 0 -0.197449,0.0643 52.646413,51.278152 41.127482 0 0 -0.0971,0.0318 52.646413,51.278152 41.127482 0 0 -0.09923,0.0327 52.646413,51.278152 41.127482 0 0 -0.553171,0.18724 52.646413,51.278152 41.127482 0 0 -0.227234,0.0787 52.646413,51.278152 41.127482 0 0 -0.09549,0.0339 52.646413,51.278152 41.127482 0 0 -0.261445,0.0928 52.646413,51.278152 41.127482 0 0 -0.225967,0.0812 52.646413,51.278152 41.127482 0 0 -0.03752,0.0139 52.646413,51.278152 41.127482 0 0 -0.02789,0.01 52.646413,51.278152 41.127482 0 0 -0.26941,0.0995 52.646413,51.278152 41.127482 0 0 -0.04786,0.0179 52.646413,51.278152 41.127482 0 0 -0.551693,0.20911 52.646413,51.278152 41.127482 0 0 -0.288306,0.11255 52.646413,51.278152 41.127482 0 0 -0.57447,0.2297 52.646413,51.278152 41.127482 0 0 -0.230913,0.0947 52.646413,51.278152 41.127482 0 0 -0.05525,0.0224 52.646413,51.278152 41.127482 0 0 -0.267843,0.11188 52.646413,51.278152 41.127482 0 0 -0.05199,0.0218 52.646413,51.278152 41.127482 0 0 -0.24952,0.10663 52.646413,51.278152 41.127482 0 0 -0.28397,0.1225 52.646413,51.278152 41.127482 0 0 -0.283093,0.12464 52.646413,51.278152 41.127482 0 0 -0.264139,0.11786 52.646413,51.278152 41.127482 0 0 -0.04053,0.0181 52.646413,51.278152 41.127482 0 0 -0.52361,0.23981 52.646413,51.278152 41.127482 0 0 -0.08557,0.0398 52.646413,51.278152 41.127482 0 0 -0.147665,0.0693 52.646413,51.278152 41.127482 0 0 -0.07133,0.0338 52.646413,51.278152 41.127482 0 0 -0.233813,0.11142 52.646413,51.278152 41.127482 0 0 -0.159955,0.0771 52.646413,51.278152 41.127482 0 0 -0.1188,0.0575 52.646413,51.278152 41.127482 0 0 -0.155631,0.0761 52.646413,51.278152 41.127482 0 0 -0.133959,0.0662 52.646413,51.278152 41.127482 0 0 -0.153782,0.0763 52.646413,51.278152 41.127482 0 0 -0.08362,0.0416 52.646413,51.278152 41.127482 0 0 -0.062,0.0309 52.646413,51.278152 41.127482 0 0 -0.0878,0.0448 52.646413,51.278152 41.127482 0 0 -0.187306,0.0951 52.646413,51.278152 41.127482 0 0 -0.213446,0.10931 52.646413,51.278152 41.127482 0 0 -0.06156,0.032 52.646413,51.278152 41.127482 0 0 -0.268834,0.14052 52.646413,51.278152 41.127482 0 0 -0.02123,0.011 52.646413,51.278152 41.127482 0 0 -0.255956,0.13599 52.646413,51.278152 41.127482 0 0 -0.271743,0.14621 52.646413,51.278152 41.127482 0 0 -0.25464,0.1392 52.646413,51.278152 41.127482 0 0 -0.06569,0.0359 52.646413,51.278152 41.127482 0 0 -0.219218,0.12142 52.646413,51.278152 41.127482 0 0 -0.0056,0.003 52.646413,51.278152 41.127482 0 0 -0.264983,0.14869 52.646413,51.278152 41.127482 0 0 -0.267994,0.15291 52.646413,51.278152 41.127482 0 0 -0.237918,0.13734 52.646413,51.278152 41.127482 0 0 -0.126804,0.0745 52.646413,51.278152 41.127482 0 0 -0.155373,0.0907 52.646413,51.278152 41.127482 0 0 -0.04329,0.026 52.646413,51.278152 41.127482 0 0 -0.228149,0.13557 52.646413,51.278152 41.127482 0 0 -0.02852,0.017 52.646413,51.278152 41.127482 0 0 -0.238203,0.14394 52.646413,51.278152 41.127482 0 0 -0.04363,0.0264 52.646413,51.278152 41.127482 0 0 -0.190252,0.11652 52.646413,51.278152 41.127482 0 0 -0.06646,0.0408 52.646413,51.278152 41.127482 0 0 -0.228821,0.14184 52.646413,51.278152 41.127482 0 0 -0.261372,0.16419 52.646413,51.278152 41.127482 0 0 -0.201905,0.1283 52.646413,51.278152 41.127482 0 0 -0.05791,0.0373 52.646413,51.278152 41.127482 0 0 -0.258985,0.16696 52.646413,51.278152 41.127482 0 0 -0.25811,0.1691 52.646413,51.278152 41.127482 0 0 -0.234495,0.15541 52.646413,51.278152 41.127482 0 0 -0.09566,0.064 52.646413,51.278152 41.127482 0 0 -0.163618,0.1096 52.646413,51.278152 41.127482 0 0 -0.08015,0.0549 52.646413,51.278152 41.127482 0 0 -0.193249,0.13174 52.646413,51.278152 41.127482 0 0 -0.25368,0.17502 52.646413,51.278152 41.127482 0 0 -0.22419,0.15618 52.646413,51.278152 41.127482 0 0 -0.114644,0.081 52.646413,51.278152 41.127482 0 0 -0.140147,0.0992 52.646413,51.278152 41.127482 0 0 -0.111777,0.0801 52.646413,51.278152 41.127482 0 0 -0.143548,0.10311 52.646413,51.278152 41.127482 0 0 -0.0803,0.0582 52.646413,51.278152 41.127482 0 0 -0.401294,0.29379 52.646413,51.278152 41.127482 0 0 -0.03595,0.0262 52.646413,51.278152 41.127482 0 0 -0.05717,0.0427 52.646413,51.278152 41.127482 0 0 -0.189641,0.14175 52.646413,51.278152 41.127482 0 0 -0.221941,0.16775 52.646413,51.278152 41.127482 0 0 -0.09856,0.0752 52.646413,51.278152 41.127482 0 0 -0.167148,0.12778 52.646413,51.278152 41.127482 0 0 -0.0084,0.006 52.646413,51.278152 41.127482 0 0 -0.237676,0.1842 52.646413,51.278152 41.127482 0 0 -0.242046,0.18998 52.646413,51.278152 41.127482 0 0 -0.210276,0.16696 52.646413,51.278152 41.127482 0 0 -0.144506,0.11599 52.646413,51.278152 41.127482 0 0 -0.09171,0.0736 52.646413,51.278152 41.127482 0 0 -0.128427,0.10465 52.646413,51.278152 41.127482 0 0 -0.145086,0.11823 52.646413,51.278152 41.127482 0 0 -0.220955,0.18233 52.646413,51.278152 41.127482 0 0 -0.199678,0.1666 52.646413,51.278152 41.127482 0 0 -0.124052,0.10436 52.646413,51.278152 41.127482 0 0 -0.163831,0.13891 52.646413,51.278152 41.127482 0 0 -0.201471,0.17258 52.646413,51.278152 41.127482 0 0 -0.132159,0.11443 52.646413,51.278152 41.127482 0 0 -0.120748,0.10449 52.646413,51.278152 41.127482 0 0 -0.03249,0.0286 52.646413,51.278152 41.127482 0 0 -0.203992,0.17862 52.646413,51.278152 41.127482 0 0 -0.185146,0.16489 52.646413,51.278152 41.127482 0 0 -0.229243,0.20597 52.646413,51.278152 41.127482 0 0 -0.114573,0.10371 52.646413,51.278152 41.127482 0 0 -0.598739,0.5529 52.646413,51.278152 41.127482 0 0 -0.07537,0.0714 52.646413,51.278152 41.127482 0 0 -0.164155,0.15578 52.646413,51.278152 41.127482 0 0 -0.222186,0.21281 52.646413,51.278152 41.127482 0 0 -0.186635,0.18074 52.646413,51.278152 41.127482 0 0 -0.08314,0.0811 52.646413,51.278152 41.127482 0 0 -0.170996,0.16832 52.646413,51.278152 41.127482 0 0 -0.02025,0.02 52.646413,51.278152 41.127482 0 0 -0.0066,0.006 52.646413,51.278152 41.127482 0 0 -0.0082,0.009 l -3.89e-4,-3.4e-4 a 52.646413,51.278152 41.127482 0 0 -0.133793,0.13358 52.646413,51.278152 41.127482 0 0 -0.151957,0.15203 52.646413,51.278152 41.127482 0 0 -0.108004,0.10876 52.646413,51.278152 41.127482 0 0 -0.155887,0.15888 52.646413,51.278152 41.127482 0 0 -0.02671,0.0274 52.646413,51.278152 41.127482 0 0 -0.205466,0.21095 52.646413,51.278152 41.127482 0 0 -0.212115,0.22092 52.646413,51.278152 41.127482 0 0 -6.8e-4,7.8e-4 52.646413,51.278152 41.127482 0 0 -0.121356,0.12797 52.646413,51.278152 41.127482 0 0 -0.171565,0.18156 52.646413,51.278152 41.127482 0 0 -0.177923,0.1904 52.646413,51.278152 41.127482 0 0 -0.127273,0.1379 52.646413,51.278152 41.127482 0 0 -0.04404,0.0473 52.646413,51.278152 41.127482 0 0 -0.196712,0.21584 52.646413,51.278152 41.127482 0 0 -0.198312,0.21926 52.646413,51.278152 41.127482 0 0 -0.0078,0.009 52.646413,51.278152 41.127482 0 0 -0.0078,0.009 52.646413,51.278152 41.127482 0 0 -0.196756,0.22062 52.646413,51.278152 41.127482 0 0 -0.164609,0.18694 52.646413,51.278152 41.127482 0 0 -0.116972,0.13317 z m 15.409595,13.35683 a 22.231393,22.231389 41.127482 0 1 9.544587,-6.401939 22.231393,22.231389 41.127482 0 1 21.813099,4.290296 l -5.722469,6.553431 -8.899805,10.192165 -8.899466,10.191777 -5.72281,6.553831 A 22.231393,22.231389 41.127482 0 1 46.785478,64.333824 22.231393,22.231389 41.127482 0 1 51.863166,53.990189 Z" />
    </g>
  </g>
</svg>
